<?xml version="1.0" encoding="utf-8"?>
<svg version="1.1" xmlns:xlink="http://www.w3.org/1999/xlink" width="96px" height="96px" xmlns="http://www.w3.org/2000/svg">
  <g transform="matrix(1 0 0 1 -2126 -380 )">
    <path d="M 2127 383  A 2 2 0 0 1 2129 381 L 2219 381  A 2 2 0 0 1 2221 383 L 2221 473  A 2 2 0 0 1 2219 475 L 2129 475  A 2 2 0 0 1 2127 473 L 2127 383  Z " fill-rule="nonzero" fill="#f2f2f2" stroke="none" />
    <path d="M 2126.5 383  A 2.5 2.5 0 0 1 2129 380.5 L 2219 380.5  A 2.5 2.5 0 0 1 2221.5 383 L 2221.5 473  A 2.5 2.5 0 0 1 2219 475.5 L 2129 475.5  A 2.5 2.5 0 0 1 2126.5 473 L 2126.5 383  Z " stroke-width="1" stroke-dasharray="3,1" stroke="#797979" fill="none" stroke-dashoffset="0.5" />
  </g>
</svg>